<svg version="1.1" viewBox="0.0 0.0 192.0 192.0" fill="none" stroke="none" stroke-linecap="square" stroke-miterlimit="10" xmlns:xlink="http://www.w3.org/1999/xlink" xmlns="http://www.w3.org/2000/svg"><clipPath id="p.0"><path d="m0 0l192.0 0l0 192.0l-192.0 0l0 -192.0z" clip-rule="nonzero"/></clipPath><g clip-path="url(#p.0)"><path fill="#000000" fill-opacity="0.0" d="m0 0l192.0 0l0 192.0l-192.0 0z" fill-rule="evenodd"/><path fill="#f1a33b" d="m0 32.00064l0 0c0 -17.673466 14.327174 -32.00064 32.00064 -32.00064l127.99872 0l0 0c8.487091 0 16.626587 3.3714864 22.627869 9.37277c6.0012817 6.0012846 9.372772 14.140772 9.372772 22.62787l0 127.99872c0 17.673462 -14.327179 32.00064 -32.00064 32.00064l-127.99872 0c-17.673466 0 -32.00064 -14.327179 -32.00064 -32.00064z" fill-rule="evenodd"/><path fill="#000000" fill-opacity="0.0" d="m63.669292 10.362205l64.66141 0l0 100.18897l-64.66141 0z" fill-rule="evenodd"/><path fill="#ffffff" d="m99.01136 83.362206l0 -11.421875l-20.703125 0l0 -5.375l21.78125 -30.921875l4.78125 0l0 30.921875l6.4375 0l0 5.375l-6.4375 0l0 11.421875l-5.859375 0zm0 -16.796875l0 -21.515625l-14.9375 21.515625l14.9375 0z" fill-rule="nonzero"/><path fill="#000000" fill-opacity="0.0" d="m63.669292 81.44882l64.66141 0l0 100.18898l-64.66141 0z" fill-rule="evenodd"/><path fill="#ffffff" d="m99.01136 154.44882l0 -11.421875l-20.703125 0l0 -5.375l21.78125 -30.921875l4.78125 0l0 30.921875l6.4375 0l0 5.375l-6.4375 0l0 11.421875l-5.859375 0zm0 -16.796875l0 -21.515625l-14.9375 21.515625l14.9375 0z" fill-rule="nonzero"/><path fill="#000000" fill-opacity="0.0" d="m73.480316 96.0l45.039368 0" fill-rule="evenodd"/><path stroke="#ffffff" stroke-width="4.0" stroke-linejoin="round" stroke-linecap="butt" d="m73.480316 96.0l45.039368 0" fill-rule="evenodd"/></g></svg>